{
  "asset": {
    "version": "2.0",
    "generator": "THREE.GLTFExporter"
  },
  "scenes": [
    {
      "name": "AuxScene",
      "nodes": [
        2
      ]
    }
  ],
  "scene": 0,
  "nodes": [
    {
      "name": "object_0",
      "mesh": 0
    },
    {
      "name": "object_1",
      "mesh": 1
    },
    {
      "children": [
        0,
        1
      ]
    }
  ],
  "bufferViews": [
    {
      "buffer": 0,
      "byteOffset": 0,
      "byteLength": 557244,
      "target": 34962,
      "byteStride": 12
    },
    {
      "buffer": 0,
      "byteOffset": 557244,
      "byteLength": 557244,
      "target": 34962,
      "byteStride": 12
    },
    {
      "buffer": 0,
      "byteOffset": 1114488,
      "byteLength": 371496,
      "target": 34962,
      "byteStride": 8
    },
    {
      "buffer": 0,
      "byteOffset": 1485984,
      "byteLength": 421812,
      "target": 34962,
      "byteStride": 12
    },
    {
      "buffer": 0,
      "byteOffset": 1907796,
      "byteLength": 421812,
      "target": 34962,
      "byteStride": 12
    },
    {
      "buffer": 0,
      "byteOffset": 2329608,
      "byteLength": 281208,
      "target": 34962,
      "byteStride": 8
    }
  ],
  "buffers": [
    {
      "byteLength": 2610816,
      "uri": "data:application/octet-stream;base64,"
    }
  ],
  "accessors": [
    {
      "bufferView": 0,
      "componentType": 5126,
      "count": 46437,
      "max": [
        8.215286254882812,
        13.322627067565918,
        9.822096824645996
      ],
      "min": [
        -11.116499900817871,
        0.155676007270813,
        -10.311300277709961
      ],
      "type": "VEC3"
    },
    {
      "bufferView": 1,
      "componentType": 5126,
      "count": 46437,
      "max": [
        0.9999399781227112,
        0.9999979734420776,
        0.9999139904975891
      ],
      "min": [
        -0.9993510246276855,
        -0.9999979734420776,
        -0.9999619722366333
      ],
      "type": "VEC3"
    },
    {
      "bufferView": 2,
      "componentType": 5126,
      "count": 46437,
      "max": [
        0.9931759834289551,
        0.9912199974060059
      ],
      "min": [
        0.002630000002682209,
        0.00571999978274107
      ],
      "type": "VEC2"
    },
    {
      "bufferView": 3,
      "componentType": 5126,
      "count": 35151,
      "max": [
        7.831692695617676,
        7.567915439605713,
        9.723347663879395
      ],
      "min": [
        -10.36626148223877,
        3.422950029373169,
        -9.979180335998535
      ],
      "type": "VEC3"
    },
    {
      "bufferView": 4,
      "componentType": 5126,
      "count": 35151,
      "max": [
        0.9998549818992615,
        0.9999790191650391,
        0.9999139904975891
      ],
      "min": [
        -0.9993489980697632,
        -0.9999690055847168,
        -0.9978529810905457
      ],
      "type": "VEC3"
    },
    {
      "bufferView": 5,
      "componentType": 5126,
      "count": 35151,
      "max": [
        1.9522919654846191,
        0.9780499935150146
      ],
      "min": [
        1.0097700357437134,
        0.01685200072824955
      ],
      "type": "VEC2"
    }
  ],
  "materials": [
    {
      "pbrMetallicRoughness": {
        "metallicFactor": 0.5,
        "roughnessFactor": 0.5
      },
      "name": "object_0"
    },
    {
      "pbrMetallicRoughness": {
        "metallicFactor": 0.5,
        "roughnessFactor": 0.5
      },
      "name": "object_1"
    }
  ],
  "meshes": [
    {
      "primitives": [
        {
          "mode": 4,
          "attributes": {
            "POSITION": 0,
            "NORMAL": 1,
            "TEXCOORD_0": 2
          },
          "material": 0
        }
      ]
    },
    {
      "primitives": [
        {
          "mode": 4,
          "attributes": {
            "POSITION": 3,
            "NORMAL": 4,
            "TEXCOORD_0": 5
          },
          "material": 1
        }
      ]
    }
  ]
}