{
  "accessors": [
    {
      "bufferView": 2,
      "componentType": 5126,
      "count": 17308,
      "max": [
        0.41054099798202515,
        0.39937201142311096,
        0.23347799479961395
      ],
      "min": [
        -0.39959201216697693,
        -0.41093000769615173,
        -0.05955500155687332
      ],
      "type": "VEC3"
    },
    {
      "bufferView": 2,
      "byteOffset": 207696,
      "componentType": 5126,
      "count": 17308,
      "max": [
        0.9999482035636902,
        0.9995437860488892,
        0.9999955296516418
      ],
      "min": [
        -0.9999714493751526,
        -0.9999744892120361,
        -0.997146725654602
      ],
      "type": "VEC3"
    },
    {
      "bufferView": 3,
      "componentType": 5126,
      "count": 17308,
      "max": [
        0.9999792575836182,
        0.9999982714653015,
        0.9998717308044434,
        -1.0
      ],
      "min": [
        -0.9999743700027466,
        -0.9999833703041077,
        -0.9999343752861023,
        -1.0
      ],
      "type": "VEC4"
    },
    {
      "bufferView": 1,
      "componentType": 5126,
      "count": 17308,
      "max": [
        0.9998900294303894,
        0.9996200203895569
      ],
      "min": [
        4.5000000682193786e-05,
        0.000371000001905486
      ],
      "type": "VEC2"
    },
    {
      "bufferView": 0,
      "componentType": 5125,
      "count": 88743,
      "type": "SCALAR"
    }
  ],
  "asset": {
    "extras": {
      "author": "Cheap Objects (https://sketchfab.com/ovidiuclop)",
      "license": "CC-BY-4.0 (http://creativecommons.org/licenses/by/4.0/)",
      "source": "https://sketchfab.com/3d-models/mcdonalds-double-cheeseburger-3fc5d6128b6347f39230a09217263551",
      "title": "McDonald's Double Cheeseburger"
    },
    "generator": "Sketchfab-15.47.0",
    "version": "2.0"
  },
  "bufferViews": [
    {
      "buffer": 0,
      "byteLength": 354972,
      "name": "floatBufferViews",
      "target": 34963
    },
    {
      "buffer": 0,
      "byteLength": 138464,
      "byteOffset": 354972,
      "byteStride": 8,
      "name": "floatBufferViews",
      "target": 34962
    },
    {
      "buffer": 0,
      "byteLength": 415392,
      "byteOffset": 493436,
      "byteStride": 12,
      "name": "floatBufferViews",
      "target": 34962
    },
    {
      "buffer": 0,
      "byteLength": 276928,
      "byteOffset": 908828,
      "byteStride": 16,
      "name": "floatBufferViews",
      "target": 34962
    }
  ],
  "buffers": [
    {
      "byteLength": 1185756,
      "uri": "scene.bin"
    }
  ],
  "images": [
    {
      "uri": "textures/textured_0_baseColor.jpeg"
    },
    {
      "uri": "textures/textured_0_normal.png"
    }
  ],
  "materials": [
    {
      "doubleSided": true,
      "name": "textured_0",
      "normalTexture": {
        "index": 1
      },
      "pbrMetallicRoughness": {
        "baseColorTexture": {
          "index": 0
        },
        "metallicFactor": 0.0
      }
    }
  ],
  "meshes": [
    {
      "name": "Object_0",
      "primitives": [
        {
          "attributes": {
            "NORMAL": 1,
            "POSITION": 0,
            "TANGENT": 2,
            "TEXCOORD_0": 3
          },
          "indices": 4,
          "material": 0,
          "mode": 4
        }
      ]
    }
  ],
  "nodes": [
    {
      "children": [
        1
      ],
      "matrix": [
        1.0,
        0.0,
        0.0,
        0.0,
        0.0,
        2.220446049250313e-16,
        -1.0,
        0.0,
        0.0,
        1.0,
        2.220446049250313e-16,
        0.0,
        0.0,
        0.0,
        0.0,
        1.0
      ],
      "name": "Sketchfab_model"
    },
    {
      "children": [
        2
      ],
      "name": "textured.obj.cleaner.materialmerger.gles"
    },
    {
      "mesh": 0,
      "name": "Object_2"
    }
  ],
  "samplers": [
    {
      "magFilter": 9729,
      "minFilter": 9987,
      "wrapS": 10497,
      "wrapT": 10497
    }
  ],
  "scene": 0,
  "scenes": [
    {
      "name": "Sketchfab_Scene",
      "nodes": [
        0
      ]
    }
  ],
  "textures": [
    {
      "sampler": 0,
      "source": 0
    },
    {
      "sampler": 0,
      "source": 1
    }
  ]
}
